<mxfile host="app.diagrams.net" agent="Mozilla/5.0 (X11; Linux x86_64) AppleWebKit/537.36 (KHTML, like Gecko) Chrome/132.0.0.0 Safari/537.36" version="26.0.11">
  <diagram name="Page-1" id="Ri52kA5PLsJSE8eptnoJ">
    <mxGraphModel dx="2283" dy="785" grid="1" gridSize="10" guides="1" tooltips="1" connect="1" arrows="1" fold="1" page="1" pageScale="1" pageWidth="850" pageHeight="1100" math="0" shadow="0">
      <root>
        <mxCell id="0" />
        <mxCell id="1" parent="0" />
        <mxCell id="cpjz0t1rdV3pupv7aq7g-1" value="&lt;font style=&quot;font-size: 29px;&quot;&gt;user&lt;/font&gt;" style="ellipse;whiteSpace=wrap;html=1;" vertex="1" parent="1">
          <mxGeometry x="-390" y="160" width="120" height="80" as="geometry" />
        </mxCell>
        <mxCell id="cpjz0t1rdV3pupv7aq7g-8" style="edgeStyle=orthogonalEdgeStyle;rounded=0;orthogonalLoop=1;jettySize=auto;html=1;entryX=0;entryY=0.5;entryDx=0;entryDy=0;" edge="1" parent="1" source="cpjz0t1rdV3pupv7aq7g-5" target="cpjz0t1rdV3pupv7aq7g-7">
          <mxGeometry relative="1" as="geometry">
            <mxPoint x="260" y="270" as="targetPoint" />
          </mxGeometry>
        </mxCell>
        <mxCell id="cpjz0t1rdV3pupv7aq7g-10" style="edgeStyle=orthogonalEdgeStyle;rounded=0;orthogonalLoop=1;jettySize=auto;html=1;" edge="1" parent="1" source="cpjz0t1rdV3pupv7aq7g-5" target="cpjz0t1rdV3pupv7aq7g-11">
          <mxGeometry relative="1" as="geometry">
            <mxPoint x="190" y="140" as="targetPoint" />
          </mxGeometry>
        </mxCell>
        <mxCell id="cpjz0t1rdV3pupv7aq7g-20" style="edgeStyle=orthogonalEdgeStyle;rounded=0;orthogonalLoop=1;jettySize=auto;html=1;entryX=0;entryY=0.5;entryDx=0;entryDy=0;" edge="1" parent="1" source="cpjz0t1rdV3pupv7aq7g-5" target="cpjz0t1rdV3pupv7aq7g-13">
          <mxGeometry relative="1" as="geometry">
            <Array as="points">
              <mxPoint x="40" y="200" />
              <mxPoint x="40" y="310" />
            </Array>
          </mxGeometry>
        </mxCell>
        <mxCell id="cpjz0t1rdV3pupv7aq7g-23" value="&lt;font style=&quot;font-size: 20px;&quot;&gt;text splitter&lt;/font&gt;" style="edgeLabel;html=1;align=center;verticalAlign=middle;resizable=0;points=[];" vertex="1" connectable="0" parent="cpjz0t1rdV3pupv7aq7g-20">
          <mxGeometry x="-0.6488" y="-2" relative="1" as="geometry">
            <mxPoint x="1" y="-2" as="offset" />
          </mxGeometry>
        </mxCell>
        <mxCell id="cpjz0t1rdV3pupv7aq7g-5" value="&lt;font style=&quot;font-size: 24px;&quot;&gt;pdf&lt;/font&gt;" style="shape=note;whiteSpace=wrap;html=1;backgroundOutline=1;darkOpacity=0.05;" vertex="1" parent="1">
          <mxGeometry x="-190" y="150" width="80" height="100" as="geometry" />
        </mxCell>
        <mxCell id="cpjz0t1rdV3pupv7aq7g-6" style="edgeStyle=orthogonalEdgeStyle;rounded=0;orthogonalLoop=1;jettySize=auto;html=1;entryX=0;entryY=0.5;entryDx=0;entryDy=0;entryPerimeter=0;" edge="1" parent="1" source="cpjz0t1rdV3pupv7aq7g-1" target="cpjz0t1rdV3pupv7aq7g-5">
          <mxGeometry relative="1" as="geometry" />
        </mxCell>
        <mxCell id="cpjz0t1rdV3pupv7aq7g-7" value="&lt;font style=&quot;font-size: 26px;&quot;&gt;page 1&lt;/font&gt;" style="rounded=1;whiteSpace=wrap;html=1;" vertex="1" parent="1">
          <mxGeometry x="190" y="50" width="120" height="60" as="geometry" />
        </mxCell>
        <mxCell id="cpjz0t1rdV3pupv7aq7g-11" value="&lt;font style=&quot;font-size: 22px;&quot;&gt;page 2&lt;/font&gt;" style="rounded=1;whiteSpace=wrap;html=1;" vertex="1" parent="1">
          <mxGeometry x="190" y="120" width="120" height="60" as="geometry" />
        </mxCell>
        <mxCell id="cpjz0t1rdV3pupv7aq7g-12" value="" style="endArrow=none;dashed=1;html=1;dashPattern=1 3;strokeWidth=2;rounded=0;" edge="1" parent="1">
          <mxGeometry width="50" height="50" relative="1" as="geometry">
            <mxPoint x="249.5" y="270" as="sourcePoint" />
            <mxPoint x="249.5" y="180" as="targetPoint" />
            <Array as="points">
              <mxPoint x="249.5" y="250" />
              <mxPoint x="249.5" y="230" />
            </Array>
          </mxGeometry>
        </mxCell>
        <mxCell id="cpjz0t1rdV3pupv7aq7g-13" value="&lt;font style=&quot;font-size: 21px;&quot;&gt;page n&lt;/font&gt;" style="rounded=1;whiteSpace=wrap;html=1;" vertex="1" parent="1">
          <mxGeometry x="190" y="280" width="120" height="60" as="geometry" />
        </mxCell>
        <mxCell id="cpjz0t1rdV3pupv7aq7g-14" value="" style="endArrow=classic;html=1;rounded=0;" edge="1" parent="1">
          <mxGeometry width="50" height="50" relative="1" as="geometry">
            <mxPoint x="320" y="79.5" as="sourcePoint" />
            <mxPoint x="400" y="79.5" as="targetPoint" />
          </mxGeometry>
        </mxCell>
        <mxCell id="cpjz0t1rdV3pupv7aq7g-15" value="" style="endArrow=classic;html=1;rounded=0;" edge="1" parent="1">
          <mxGeometry width="50" height="50" relative="1" as="geometry">
            <mxPoint x="330" y="150" as="sourcePoint" />
            <mxPoint x="400" y="150" as="targetPoint" />
            <Array as="points">
              <mxPoint x="370" y="150" />
            </Array>
          </mxGeometry>
        </mxCell>
        <mxCell id="cpjz0t1rdV3pupv7aq7g-16" value="" style="endArrow=classic;html=1;rounded=0;" edge="1" parent="1">
          <mxGeometry width="50" height="50" relative="1" as="geometry">
            <mxPoint x="320" y="309.5" as="sourcePoint" />
            <mxPoint x="400" y="309.5" as="targetPoint" />
          </mxGeometry>
        </mxCell>
        <mxCell id="cpjz0t1rdV3pupv7aq7g-17" value="&lt;font style=&quot;font-size: 17px;&quot;&gt;Embedding 1&lt;/font&gt;" style="rounded=1;whiteSpace=wrap;html=1;" vertex="1" parent="1">
          <mxGeometry x="410" y="50" width="120" height="60" as="geometry" />
        </mxCell>
        <mxCell id="cpjz0t1rdV3pupv7aq7g-18" value="&lt;font style=&quot;font-size: 17px;&quot;&gt;Embedding 2&lt;/font&gt;" style="rounded=1;whiteSpace=wrap;html=1;" vertex="1" parent="1">
          <mxGeometry x="410" y="120" width="120" height="60" as="geometry" />
        </mxCell>
        <mxCell id="cpjz0t1rdV3pupv7aq7g-19" value="&lt;font style=&quot;font-size: 17px;&quot;&gt;Embedding n&lt;/font&gt;" style="rounded=1;whiteSpace=wrap;html=1;" vertex="1" parent="1">
          <mxGeometry x="410" y="280" width="120" height="60" as="geometry" />
        </mxCell>
        <mxCell id="cpjz0t1rdV3pupv7aq7g-24" value="" style="endArrow=classic;html=1;rounded=0;" edge="1" parent="1">
          <mxGeometry width="50" height="50" relative="1" as="geometry">
            <mxPoint x="469.5" y="340" as="sourcePoint" />
            <mxPoint x="469.5" y="410" as="targetPoint" />
          </mxGeometry>
        </mxCell>
        <mxCell id="cpjz0t1rdV3pupv7aq7g-29" style="edgeStyle=orthogonalEdgeStyle;rounded=0;orthogonalLoop=1;jettySize=auto;html=1;exitX=1;exitY=0.5;exitDx=0;exitDy=0;" edge="1" parent="1" source="cpjz0t1rdV3pupv7aq7g-26" target="cpjz0t1rdV3pupv7aq7g-28">
          <mxGeometry relative="1" as="geometry" />
        </mxCell>
        <mxCell id="cpjz0t1rdV3pupv7aq7g-26" value="&lt;font style=&quot;font-size: 22px;&quot;&gt;user Query&lt;/font&gt;" style="ellipse;whiteSpace=wrap;html=1;" vertex="1" parent="1">
          <mxGeometry x="-60" y="610" width="120" height="80" as="geometry" />
        </mxCell>
        <mxCell id="cpjz0t1rdV3pupv7aq7g-35" style="edgeStyle=orthogonalEdgeStyle;rounded=0;orthogonalLoop=1;jettySize=auto;html=1;exitX=0.5;exitY=1;exitDx=0;exitDy=0;entryX=0.5;entryY=0;entryDx=0;entryDy=0;" edge="1" parent="1" source="cpjz0t1rdV3pupv7aq7g-27" target="cpjz0t1rdV3pupv7aq7g-32">
          <mxGeometry relative="1" as="geometry" />
        </mxCell>
        <mxCell id="cpjz0t1rdV3pupv7aq7g-27" value="&lt;font style=&quot;font-size: 21px;&quot;&gt;vector data base&lt;/font&gt;" style="shape=datastore;whiteSpace=wrap;html=1;" vertex="1" parent="1">
          <mxGeometry x="410" y="410" width="120" height="130" as="geometry" />
        </mxCell>
        <mxCell id="cpjz0t1rdV3pupv7aq7g-34" style="edgeStyle=orthogonalEdgeStyle;rounded=0;orthogonalLoop=1;jettySize=auto;html=1;entryX=0;entryY=0.5;entryDx=0;entryDy=0;" edge="1" parent="1" source="cpjz0t1rdV3pupv7aq7g-28" target="cpjz0t1rdV3pupv7aq7g-32">
          <mxGeometry relative="1" as="geometry" />
        </mxCell>
        <mxCell id="cpjz0t1rdV3pupv7aq7g-28" value="&lt;font style=&quot;font-size: 20px;&quot;&gt;Embedding&lt;/font&gt;" style="rounded=1;whiteSpace=wrap;html=1;" vertex="1" parent="1">
          <mxGeometry x="190" y="620" width="120" height="60" as="geometry" />
        </mxCell>
        <mxCell id="cpjz0t1rdV3pupv7aq7g-37" style="edgeStyle=orthogonalEdgeStyle;rounded=0;orthogonalLoop=1;jettySize=auto;html=1;exitX=1;exitY=0.5;exitDx=0;exitDy=0;entryX=0;entryY=0.5;entryDx=0;entryDy=0;" edge="1" parent="1" source="cpjz0t1rdV3pupv7aq7g-32" target="cpjz0t1rdV3pupv7aq7g-36">
          <mxGeometry relative="1" as="geometry" />
        </mxCell>
        <mxCell id="cpjz0t1rdV3pupv7aq7g-32" value="&lt;font style=&quot;font-size: 19px;&quot;&gt;semantic search&lt;/font&gt;" style="ellipse;whiteSpace=wrap;html=1;aspect=fixed;" vertex="1" parent="1">
          <mxGeometry x="415" y="595" width="110" height="110" as="geometry" />
        </mxCell>
        <mxCell id="cpjz0t1rdV3pupv7aq7g-45" style="edgeStyle=orthogonalEdgeStyle;rounded=0;orthogonalLoop=1;jettySize=auto;html=1;entryX=0;entryY=0.5;entryDx=0;entryDy=0;" edge="1" parent="1" source="cpjz0t1rdV3pupv7aq7g-36" target="cpjz0t1rdV3pupv7aq7g-44">
          <mxGeometry relative="1" as="geometry" />
        </mxCell>
        <mxCell id="cpjz0t1rdV3pupv7aq7g-36" value="&lt;font style=&quot;font-size: 19px;&quot;&gt;context pages + user Query&amp;nbsp;&lt;/font&gt;" style="rounded=1;whiteSpace=wrap;html=1;" vertex="1" parent="1">
          <mxGeometry x="640" y="620" width="300" height="60" as="geometry" />
        </mxCell>
        <mxCell id="cpjz0t1rdV3pupv7aq7g-43" style="edgeStyle=orthogonalEdgeStyle;rounded=0;orthogonalLoop=1;jettySize=auto;html=1;exitX=0.5;exitY=1;exitDx=0;exitDy=0;entryX=0.623;entryY=1.033;entryDx=0;entryDy=0;entryPerimeter=0;" edge="1" parent="1" source="cpjz0t1rdV3pupv7aq7g-26" target="cpjz0t1rdV3pupv7aq7g-36">
          <mxGeometry relative="1" as="geometry">
            <Array as="points">
              <mxPoint y="760" />
              <mxPoint x="827" y="760" />
            </Array>
          </mxGeometry>
        </mxCell>
        <mxCell id="cpjz0t1rdV3pupv7aq7g-46" style="edgeStyle=orthogonalEdgeStyle;rounded=0;orthogonalLoop=1;jettySize=auto;html=1;exitX=1;exitY=0.5;exitDx=0;exitDy=0;" edge="1" parent="1" source="cpjz0t1rdV3pupv7aq7g-44">
          <mxGeometry relative="1" as="geometry">
            <mxPoint x="1210" y="650" as="targetPoint" />
          </mxGeometry>
        </mxCell>
        <mxCell id="cpjz0t1rdV3pupv7aq7g-44" value="&lt;font style=&quot;font-size: 27px;&quot;&gt;LLM&lt;/font&gt;" style="whiteSpace=wrap;html=1;aspect=fixed;" vertex="1" parent="1">
          <mxGeometry x="1050" y="600" width="100" height="100" as="geometry" />
        </mxCell>
        <mxCell id="cpjz0t1rdV3pupv7aq7g-47" value="&lt;font style=&quot;font-size: 24px;&quot;&gt;output&lt;/font&gt;" style="rounded=1;whiteSpace=wrap;html=1;" vertex="1" parent="1">
          <mxGeometry x="1210" y="620" width="120" height="60" as="geometry" />
        </mxCell>
        <mxCell id="cpjz0t1rdV3pupv7aq7g-48" value="" style="endArrow=none;dashed=1;html=1;dashPattern=1 3;strokeWidth=2;rounded=0;entryX=0.5;entryY=1;entryDx=0;entryDy=0;" edge="1" parent="1" target="cpjz0t1rdV3pupv7aq7g-18">
          <mxGeometry width="50" height="50" relative="1" as="geometry">
            <mxPoint x="470" y="280" as="sourcePoint" />
            <mxPoint x="520" y="230" as="targetPoint" />
            <Array as="points" />
          </mxGeometry>
        </mxCell>
      </root>
    </mxGraphModel>
  </diagram>
</mxfile>
